<?xml version="1.0" encoding="UTF-8" standalone="no"?>
<!-- Created with Inkscape (http://www.inkscape.org/) -->

<svg
   width="114.46123mm"
   height="70.07547mm"
   viewBox="0 0 114.46123 70.07547"
   version="1.1"
   id="svg1"
   xml:space="preserve"
   inkscape:version="1.3.2 (091e20e, 2023-11-25, custom)"
   sodipodi:docname="logo completo blanco.svg"
   inkscape:export-filename="logo_3.jpg"
   inkscape:export-xdpi="96"
   inkscape:export-ydpi="96"
   xmlns:inkscape="http://www.inkscape.org/namespaces/inkscape"
   xmlns:sodipodi="http://sodipodi.sourceforge.net/DTD/sodipodi-0.dtd"
   xmlns="http://www.w3.org/2000/svg"
   xmlns:svg="http://www.w3.org/2000/svg"><sodipodi:namedview
     id="namedview1"
     pagecolor="#ffffff"
     bordercolor="#000000"
     borderopacity="0.25"
     inkscape:showpageshadow="2"
     inkscape:pageopacity="0.0"
     inkscape:pagecheckerboard="0"
     inkscape:deskcolor="#d1d1d1"
     inkscape:document-units="mm"
     inkscape:zoom="1.7698334"
     inkscape:cx="331.10461"
     inkscape:cy="235.89791"
     inkscape:window-width="1920"
     inkscape:window-height="1171"
     inkscape:window-x="-9"
     inkscape:window-y="-9"
     inkscape:window-maximized="1"
     inkscape:current-layer="layer2" /><defs
     id="defs1" /><g
     inkscape:groupmode="layer"
     id="layer3"
     inkscape:label="fondo"
     transform="translate(-32.306039,-98.175756)"
     style="display:none"><rect
       style="display:none;opacity:0.747;fill:#cf0303;stroke-width:0.1"
       id="rect1"
       width="123.76682"
       height="77.133705"
       x="28.736082"
       y="95.030731"
       ry="2.8421709e-14"
       inkscape:export-filename="logo_3_3.jpg"
       inkscape:export-xdpi="300"
       inkscape:export-ydpi="300" /></g><g
     inkscape:label="Capa 1"
     inkscape:groupmode="layer"
     id="layer1"
     style="display:inline"
     inkscape:export-filename="logo_3.jpg"
     inkscape:export-xdpi="300"
     inkscape:export-ydpi="300"
     transform="translate(-32.306039,-98.175756)"><path
       id="path5"
       style="display:inline;fill:#ffffff;fill-opacity:1"
       inkscape:label="arbol simplificado"
       d="m 93.635111,98.184705 c -0.135176,-0.03147 -0.286671,0.0211 -0.525549,0.141593 -1.202957,0.48843 -2.631504,0.300907 -3.77548,1.033529 -0.179086,0.679143 -0.735012,-0.567144 -2.314587,0.23306 -0.836745,0.423903 -0.903933,1.951723 -2.083594,1.455723 -0.833605,0.001 -1.62437,1.07011 -2.668054,1.02681 -0.690038,-0.0286 -1.465713,0.73529 -0.917774,0.90382 0.226705,0.0697 0.212771,0.2479 -0.05219,0.67697 -0.489463,1.02969 -0.143644,2.2026 -0.05839,3.28817 -0.830605,0.36657 -2.800397,1.00613 -1.948202,2.18643 0.499812,0.50594 -1.054445,1.37705 0.84491,1.96473 1.956226,-2.08607 3.824858,-0.60227 1.161686,0.22996 -0.499688,-0.33522 -1.384145,1.42135 -3.725871,1.27796 -1.584686,0.35766 -2.924314,1.96172 -2.720764,3.57188 0,0.74952 -0.404014,1.55146 -0.542086,1.6676 -1.113394,0.93659 0.280698,2.83179 0.251148,2.87889 0.713599,0.69351 2.239815,1.07723 1.741496,2.23242 -0.397435,1.0722 -1.242076,0.0608 -2.037085,0.40618 -0.572853,0.51255 -1.000288,1.39998 -0.0832,2.07016 0.396049,-0.0359 0.192952,1.82654 0.669726,2.19573 0.88942,0.68872 -0.346528,2.54248 1.324467,2.54248 1.318215,0.11181 2.432709,1.22869 3.821472,1.08882 0.138245,0.1097 1.574892,-0.0349 2.156975,0.0341 0.390613,0.0463 1.4951,1.04017 2.418457,0.39636 0.841362,-0.58688 2.353687,0.0885 2.540413,-0.16537 0.09801,-0.13324 0.409495,-0.24236 0.691947,-0.24236 0.412726,0 0.513664,-0.1562 0.513664,-0.79582 0,-0.71884 0.09975,-0.82906 1.032495,-1.13688 0.834761,-0.27548 1.057189,-0.47466 1.160653,-1.03818 0.196092,-1.06802 -0.725976,-1.30007 -0.436666,-1.54306 0.09381,-0.0788 0.05576,-0.27106 -0.08475,-0.42684 -0.95636,-1.56667 0.634889,-1.6062 1.690853,-0.93638 1.115246,0.47927 1.578693,0.91533 0.204121,1.20923 -0.398925,0 -0.177848,1.24417 0.277503,1.56166 0.902672,0.37598 1.958275,0.10042 2.902665,0.10542 -0.03265,-0.53381 -0.464457,-2.27441 0.42478,-1.87689 0.466049,0.20954 0.669623,0.15732 1.270207,-0.32608 0.803976,-0.64712 1.994878,-0.86555 1.234033,-0.22634 -0.594559,0.4995 -0.512984,0.62235 0.152963,0.23048 0.502494,-0.2958 0.656326,-0.29684 1.322916,-0.007 1.021481,0.44381 1.305331,-0.91476 2.209681,0.2558 0.14553,0.18835 0.94568,0.93741 1.28312,1.30896 0.22446,0.24718 0.018,0.49588 0.0413,1.9358 0.0285,0.0483 0.22271,0.11679 0.22271,0.11679 0.0318,0.053 -0.0428,1.61518 -0.063,2.3027 -0.0263,0.89289 -2.63959,1.54123 -4.215246,2.66547 -5.58e-4,3e-5 -9.92e-4,-3e-5 -0.0015,0 -0.853705,0.43555 -0.535041,0.29109 -33.250167,0.39998 -33.082602,0.11012 -33.391244,0.11507 -33.391244,0.55552 0,0.44964 13.584623,0.50419 37.579619,0.56999 20.35817,0.13401 18.519261,0.66308 38.884448,0.32763 1.77655,0.21023 3.84287,0.44331 5.72369,0.79013 27.11398,3.04541 -30.758793,15.44102 -29.921179,30.10101 0.01614,0.2825 0.0305,0.56508 0.04186,0.84801 l 24.091559,-0.0295 c -1.47037,-1.43449 -4.10547,-4.4772 3.4742,-11.36623 8.09213,-7.35478 7.11126,-5.23472 15.99386,-12.93771 2.69849,-2.34013 1.5326,-4.32756 0.52865,-4.75888 -2.14098,-0.9198 -2.46513,-1.08603 -5.44825,-1.73478 -1.03053,-0.22411 -4.71609,-0.7296 -7.01146,-1.05317 2.81477,-0.059 5.55654,-0.1155 9.08524,-0.2005 17.85562,-0.21557 21.439,-0.0865 21.439,-0.52607 0,-0.44045 -1.49408,-0.49299 -27.91923,-0.58549 -4.41397,0.11318 -7.25382,-0.0227 -9.75134,-0.17518 -1.14306,-0.40252 -1.53716,-1.11879 -1.86862,-1.87327 -0.66863,-1.52187 -0.22595,-4.54854 -0.26665,-5.85443 -0.0112,-0.36108 -0.012,-0.64735 0.80977,-0.70745 0.0434,-0.30358 -0.0253,-0.5166 0.016,-0.67386 -0.17672,-0.003 -0.21604,-0.0987 -0.4315,-0.0879 0.034,-0.36114 0.0698,-0.54715 0.11679,-0.76378 0.24634,-0.0178 0.25005,-0.22894 0.24805,-0.41392 -0.41414,-1.53464 -0.23903,-2.71327 0.0455,-2.74867 0.37171,-0.0838 0.92553,-0.44704 0.92553,-0.60824 0.0401,-0.30865 0.44407,-0.60346 1.30483,-0.67386 0.37367,-0.0306 1.64264,0.39187 2.40088,0.0992 1.02553,-0.6174 1.92541,-1.62805 3.2396,-0.43201 0.57268,0.52119 1.47315,-0.66623 2.64532,0.35967 0.0567,0.92401 1.26059,0.98778 1.58801,1.10846 0.35687,0.27329 0.26689,0.84696 0.6966,1.05781 0.006,0.55329 0.0925,0.90104 0.53227,1.24592 0.088,0.68909 0.18002,0.97241 0.95188,1.31982 0.60211,0.22049 1.0949,0.42113 1.77973,0.20309 0.18274,-0.0325 0.99396,0.37736 1.87586,0.42426 1.99707,0.10609 1.85909,-0.37125 2.19366,-0.77256 0.55374,-0.66418 2.22261,-1.26225 2.22261,-1.76269 0,-0.1961 0.22652,-0.56306 0.50333,-0.81545 0.74872,-0.68271 -0.91874,-3.03037 0.48265,-4.223 0.91322,-0.77717 0.25107,-2.19003 0.94103,-2.78743 0.73005,-0.6321 -0.12349,-1.87236 -0.40979,-2.3952 -0.75093,-1.37136 -0.98806,-0.74309 -0.98806,-1.46296 0,-0.34778 -0.25422,-0.57727 -0.7276,-0.80357 -1.09536,-0.52365 -2.68227,0.29884 -2.74867,0.34934 -0.45175,0.34343 -1.31946,-0.0607 -0.39894,-1.22112 0.26955,-0.71555 -1.24439,-0.60802 1.48828,-1.80867 0.81852,-0.35963 -0.89715,-2.10054 -1.33842,-2.5554 -0.45258,-0.46653 -1.93675,-0.38713 -2.00505,-0.90847 -0.081,-0.61846 -0.72408,-2.59258 -3.24683,-2.50218 -1.45147,0.052 -1.6061,-0.15013 -1.6061,-0.81442 0,-0.59959 -1.04983,-1.665013 -1.64021,-1.665013 -0.67435,0 0.10305,-1.731496 -3.34036,-0.579809 -1.96733,0.657995 -2.62148,-0.223119 -3.95739,0.278019 -0.76828,0.28821 -1.54237,0.437059 -1.65364,0.523999 -1.36293,1.064934 0.55629,1.529624 0.58859,2.119254 0.0405,0.73927 -0.0917,0.99343 -0.43615,0.5643 -1.12151,-1.39708 -2.03037,-0.53536 -2.26497,-0.0889 -0.31061,-0.46413 -1.63955,-1.80368 -3.05822,-2.02727 -1.42633,-0.22481 -1.24363,0.32515 -1.7663,-0.48059 -1.11751,-0.175587 -2.86917,-0.374861 -3.767726,-0.08785 -1.00958,0.3225 -0.764073,-0.450351 -1.69137,0.03617 -0.499297,0.26196 -0.633332,0.22763 -1.232483,-0.315226 -0.970513,-0.879327 -1.206693,-0.394737 -1.78387,-1.109493 -0.175141,-0.216888 -0.294255,-0.33233 -0.429432,-0.363802 z" /></g><g
     inkscape:groupmode="layer"
     id="layer2"
     inkscape:label="letras"
     transform="matrix(0.56,0,0,0.56,-23.2268,4.3219644)"
     style="display:inline;fill:#cf0403;fill-opacity:1"><path
       id="path1"
       style="color:#000000;-inkscape-font-specification:'Gloucester MT Extra Condensed, Normal';display:inline;fill:#ffffff;fill-opacity:1;stroke-width:2.39859;stroke-linejoin:round;-inkscape-stroke:none"
       inkscape:label="o_4"
       d="m 131.85991,71.189084 c -1.47306,0 -2.68908,0.80593 -3.64829,2.41863 -0.95921,1.59905 -1.43912,4.14793 -1.43912,7.64667 0,3.34841 0.45708,5.87722 1.37062,7.58556 0.92496,1.6947 2.23803,2.54187 3.93948,2.54187 1.67863,0 2.96305,-0.86778 3.85375,-2.60349 0.89069,-1.73568 1.33615,-4.20261 1.33615,-7.40069 0,-6.79248 -1.80413,-10.18854 -5.41259,-10.18855 z m 0.037,0.698916 c 0.5367,0 1.02492,0.716144 1.26472,1.590824 0.23976,0.86101 0.58099,3.20474 0.58099,5.54181 v 5.93053 c 0,1.96804 -0.34127,3.62833 -0.58099,4.36635 -0.2284,0.72435 -0.59377,1.365129 -1.09622,1.365129 -0.59377,0 -1.00478,-0.750259 -1.23316,-1.693249 -0.21685,-0.9567 -0.57862,-2.76765 -0.57862,-5.22771 v -6.73622 c 0,-3.30737 0.6498,-5.137464 1.64328,-5.137464 z"
       sodipodi:nodetypes="scscssssscsscscsss" /><path
       style="color:#000000;-inkscape-font-specification:'Gloucester MT Extra Condensed, Normal';display:inline;fill:#ffffff;fill-opacity:1;stroke-width:2.49948;stroke-linejoin:round;-inkscape-stroke:none"
       d="m 110.75141,72.360884 h -0.64663 c -0.2834,0 -0.42513,-0.13758 -0.42513,-0.41261 v -0.0735 c 0,-0.28862 0.68426,-0.42084 1.07176,-0.84488 0.62263,-0.68129 0.65937,-1.47094 0.41672,-2.74362 -0.22198,-1.16427 -0.26098,-2.05954 -0.41672,-3.12687 0.55351,0.0272 1.40752,-0.24981 1.40752,-0.24981 l 1.1092,-0.62727 c 0.4575,-0.25905 1.1425,-0.36244 1.1425,0.36911 v 6.53984 h 1.88527 c 0.35733,0 0.536,0.15817 0.536,0.4745 v 0.20012 c 0,0.33009 -0.14172,0.49513 -0.42512,0.49513 h -1.99615 v 14.93072 c 0,1.36162 -0.059,1.69634 0.15167,2.11295 0.13015,0.25733 0.26436,0.4133 0.59162,0.43303 0.41605,0.0374 0.47519,-0.26884 0.65582,0.006 0.0175,0.0594 0.29325,0.30626 -0.11018,0.66492 -0.19829,0.22358 -1.33213,0.84107 -2.04679,0.84107 -1.93455,0 -2.90181,-1.69036 -2.90181,-2.73474 z"
       id="path115"
       inkscape:label="t chula desafilada 1"
       sodipodi:nodetypes="cssssscccscsssscsscccscc" /><path
       style="color:#000000;-inkscape-font-specification:'Gloucester MT Extra Condensed, Normal';display:inline;fill:#ffffff;fill-opacity:1;stroke-width:2.49948;stroke-linejoin:round;-inkscape-stroke:none"
       d="m 119.49019,72.397634 h -0.64663 c -0.2834,0 -0.42513,-0.13758 -0.42513,-0.41261 v -0.0735 c 0,-0.28862 0.68426,-0.42084 1.07176,-0.84488 0.62263,-0.68129 0.65937,-1.47094 0.41672,-2.74362 -0.22198,-1.16426 -0.26098,-2.05954 -0.41672,-3.12687 0.55351,0.0272 1.40752,-0.24981 1.40752,-0.24981 l 1.1092,-0.62727 c 0.4575,-0.25905 1.1425,-0.36244 1.1425,0.36911 v 6.53984 h 1.88527 c 0.35733,0 0.536,0.15818 0.536,0.4745 v 0.20012 c 0,0.3301 -0.14172,0.49513 -0.42512,0.49513 h -1.99615 v 14.93072 c 0,1.36162 -0.059,1.69634 0.15167,2.11296 0.13015,0.25732 0.26436,0.41329 0.59162,0.43303 0.41605,0.0374 0.47519,-0.26885 0.65582,0.006 0.0175,0.0594 0.29325,0.30626 -0.11018,0.66492 -0.19829,0.22357 -1.33213,0.84107 -2.04679,0.84107 -1.93455,0 -2.90181,-1.69036 -2.90181,-2.73474 z"
       id="path115-0"
       inkscape:label="t chula desafilada 1"
       sodipodi:nodetypes="cssssscccscsssscsscccscc" /><path
       style="color:#000000;-inkscape-font-specification:'Gloucester MT Extra Condensed, Normal';display:inline;fill:#ffffff;fill-opacity:1;stroke-width:2.49497;stroke-linejoin:round;-inkscape-stroke:none"
       d="m 103.25472,87.284914 -0.15567,-9.68838 c -0.0321,-1.99687 0.0537,-3.59537 -4e-4,-5.30918 0.40354,0.008 1.09471,-0.075 1.39794,-0.23101 0.6086,-0.29043 0.94556,-0.45128 1.30952,-0.62501 0.73124,-0.37652 1.1375,-0.19313 1.14249,0.36778 l -0.0343,16.80653 c -6.7e-4,0.3289 0.0929,0.61912 0.11668,0.71915 0.21427,0.32689 0.36726,0.40893 0.59162,0.43147 0.41418,0.0276 0.46434,-0.28176 0.65582,0.006 0.0341,0.0512 0.27793,0.34255 -0.11018,0.66252 -0.77963,0.64275 -1.36774,0.81433 -2.0882,0.81344 -1.28561,3.2e-4 -1.9646,-0.43752 -2.61871,-1.78498 -1.33077,1.19226 -2.67717,1.88124 -3.625981,1.88124 -0.948784,0 -1.6881,-0.34261 -2.217937,-1.02779 -0.517521,-0.69892 -0.776282,-1.61022 -0.776282,-2.73396 v -11.49293 c -0.0045,-0.20785 -0.3869,-1.41335 -0.452977,-1.65236 -0.24942,-0.82193 -0.168753,-2.07959 0.617472,-2.12656 0.163454,-0.008 0.459133,-0.008 1.043727,-0.24944 0.477231,-0.19734 1.095063,-0.50403 1.309523,-0.62501 0.726655,-0.4099 1.164545,-0.14708 1.142495,0.36779 l -6.4e-4,16.29821 c -4e-5,0.98668 0.33886,1.48003 1.01657,1.48003 0.59145,0 1.17058,-0.41112 1.7374,-1.23336 z"
       id="path119"
       inkscape:label="u desafilada"
       sodipodi:nodetypes="csccccsccssccscscccsscsscc" /><path
       id="path120"
       style="color:#000000;-inkscape-font-specification:'Gloucester MT Extra Condensed, Normal';display:inline;fill:#ffffff;fill-opacity:1;stroke-width:2.4867;stroke-linejoin:round;-inkscape-stroke:none"
       inkscape:label="a desafilada"
       d="m 87.745025,71.225194 c -1.145935,0 -2.156482,0.34029 -3.031339,1.02094 -0.862535,0.66706 -1.293462,1.5383 -1.293462,2.61373 0,0.65345 0.178547,1.18441 0.535884,1.59282 0.357335,0.39483 0.831717,0.59177 1.42317,0.59177 0.542163,0 0.967326,-0.17695 1.275375,-0.53093 0.308055,-0.36757 0.461986,-0.81001 0.461986,-1.32733 0,-0.28586 -0.07384,-0.62615 -0.2217,-1.02093 -0.486656,-0.79445 -1.737726,-0.93047 -1.737726,-1.03947 0,-0.28585 0.816396,-1.22166 2.546349,-1.29375 1.181856,-0.0492 1.483233,2.25841 1.483233,3.94646 v 2.85876 c -4.26338,1.21158 -6.394959,3.73679 -6.394959,7.57575 0,1.49749 0.338772,2.72951 1.016475,3.69606 0.677706,0.95292 1.540079,1.42962 2.58744,1.42962 1.09665,0 1.834291,-0.32247 3.017194,-1.83356 0.464903,1.11317 1.263309,1.77318 2.618719,1.77318 1.010396,0 1.819874,-0.58186 2.088194,-0.80807 0.006,-0.0251 0.406765,-0.29762 0.110177,-0.65814 -0.199826,-0.29289 -0.232588,0.0303 -0.655823,-0.006 -0.243864,-0.0224 -0.400352,-0.12812 -0.591612,-0.42862 -0.09858,-0.29951 -0.136099,-0.34052 -0.136099,-0.89866 v -11.74087 c 0,-1.75611 -0.449774,-3.11038 -1.349274,-4.0633 -0.887177,-0.96656 -2.138056,-1.44958 -3.752225,-1.44958 z m 1.441772,7.92356 v 8.59517 c 0,0.51729 -0.111004,0.99347 -0.332796,1.4291 -0.221795,0.4221 -0.529674,0.63324 -0.923975,0.63324 -0.899497,0 -1.349271,-2.51734 -1.349271,-4.4096 0,-2.40955 0.868655,-5.54002 2.606042,-6.24791 z"
       sodipodi:nodetypes="ccscscscssscscscsccccsscscscsscs" /><path
       style="display:inline;fill:#ffffff;fill-opacity:1;stroke:#ff0000;stroke-width:0;stroke-linecap:butt;stroke-linejoin:round;stroke-dasharray:none;stroke-opacity:1"
       d="m 67.857053,62.738934 5.795318,9.5e-4 c 0.229943,-9e-5 0.377745,0.13632 0.372608,0.40379 l 9.35e-4,-0.074 c -0.0075,0.37745 -0.279172,0.65566 -0.542156,0.83006 -0.491341,0.42064 -0.629063,0.885 -0.638662,1.45326 l 0.005,25.71574 c -2.086223,-0.66389 -2.789194,-0.58682 -4.232808,-0.94935 l -0.055,-24.85238 c -0.139482,-1.63164 -1.169773,-1.24595 -1.192144,-2.25232 v 0.14758 c 0.007,-0.22564 0.123391,-0.42252 0.486941,-0.42324 z"
       id="path121"
       sodipodi:nodetypes="ccccccccccccc"
       inkscape:label="L top4" /><path
       style="display:inline;fill:#ffffff;fill-opacity:1;stroke:#ff0000;stroke-width:0;stroke-linecap:butt;stroke-linejoin:round;stroke-dasharray:none;stroke-opacity:1"
       d="m 68.617288,90.068684 c 0.894546,0.34133 1.678626,0.90489 3.691451,2.02303 -0.791064,1.577 -5.735382,2.19601 -7.657175,-0.88923 -0.433792,-0.68335 -0.155305,-1.62639 0.668334,-2.00988 0.582776,-0.3536 1.753811,-0.51104 3.270933,-0.004 2.033668,0.55509 4.104405,1.87125 6.851987,2.18059 3.155395,0.37692 3.657735,-4.43817 3.966992,-5.41854 0.06916,-0.29528 0.05966,-0.4942 0.451777,-0.48278 l 0.312825,2.6e-4 c 0.261344,10e-4 0.493236,0.0946 0.494476,0.49379 l -0.0018,7.1598 c -1.054499,0.32165 -2.346233,0.56331 -3.636213,0.57243 -0.919456,-0.002 -2.114971,-0.2823 -3.090748,-0.61532 -2.226903,-0.76004 -4.754912,-2.86919 -6.211207,-3.14468 -0.720685,-0.13633 -0.924738,0.15041 -0.917013,0.54516 0.0041,0.21149 0.288756,0.49609 0.849584,0.57724 0.637164,0.0722 0.933044,-0.51399 0.955797,-0.98787 z"
       id="path122"
       sodipodi:nodetypes="ccccccccccccssscc"
       inkscape:label="L down4" /><path
       d="m 37.092432,82.092934 h 16.782922 v 1.99994 H 37.092432 Z m 129.045838,0 h 16.78288 v 1.99994 h -16.78288 z"
       id="path19"
       style="font-size:16px;font-family:'Gloucester MT Extra Condensed';-inkscape-font-specification:'Gloucester MT Extra Condensed, Normal';white-space:pre;display:none;fill:#ffffff;fill-opacity:1;stroke:#000000;stroke-width:0;stroke-linejoin:round"
       inkscape:label="guiones"
       aria-label="-       -" /><path
       style="color:#000000;-inkscape-font-specification:'Gloucester MT Extra Condensed, Normal';display:inline;fill:#ffffff;fill-opacity:1;stroke-width:2.53324;stroke-linejoin:round;-inkscape-stroke:none"
       d="m 140.36087,88.032414 -1.6e-4,-11.74582 c -0.20985,-0.86217 -0.45298,-1.70346 -0.45298,-1.70346 -0.24678,-0.84193 -0.18241,-2.1777 0.61747,-2.19233 0.38435,0.008 0.70717,-0.14186 1.04373,-0.25714 0,0 1.04105,-0.49841 1.30952,-0.64434 0.71176,-0.42128 1.1672,-0.16031 1.1425,0.37922 l -5.5e-4,1.22384 c 1.04737,-1.28564 2.1933,-1.92845 3.43783,-1.92845 0.92414,0 1.64498,0.40969 2.1625,1.2291 0.52984,0.81943 0.79161,1.886083 0.79477,3.19994 l 0.0334,13.896919 c 0.002,0.70474 0.30317,1.177606 0.72141,1.212052 0.28655,0.0236 0.53267,-0.308032 0.67395,-1.74e-4 0.14943,0.325603 0.0754,0.423229 -0.13546,0.657884 -0.55233,0.614702 -1.62673,0.833811 -2.08771,0.827587 -1.76537,-0.02384 -2.81546,-1.294892 -2.82077,-3.041342 l -0.0445,-14.639933 c -0.003,-1.031335 -0.32038,-1.54698 -0.96111,-1.54698 -0.61608,0 -1.20753,0.42383 -1.77436,1.27148 v 15.11117 c 0,0.48033 0.14172,0.89712 0.42512,1.25029 0.13556,0.16954 0.20322,0.28956 0.20322,0.36027 v 0.11077 c 0,0.18363 -0.0863,0.27549 -0.25877,0.27549 h -4.58376 c -0.19707,0 -0.29573,-0.10607 -0.29573,-0.31788 v -0.0684 c 0,-0.099 0.0802,-0.21891 0.24027,-0.36027 0.40664,-0.36731 0.60996,-0.86886 0.60996,-1.50459 z"
       id="path6"
       inkscape:label="n"
       sodipodi:nodetypes="ccccccccscssssssssscscssssssccc" /></g></svg>
